<?xml version="1.0" encoding="utf-8"?>
<!-- Generator: Adobe Illustrator 21.0.2, SVG Export Plug-In . SVG Version: 6.00 Build 0)  -->
<svg version="1.1" id="Layer_1" xmlns="http://www.w3.org/2000/svg" xmlns:xlink="http://www.w3.org/1999/xlink" x="0px" y="0px"
	 viewBox="0 0 502.1 159" style="enable-background:new 0 0 502.1 159;" xml:space="preserve">
<style type="text/css">
	.st0{fill:#FFFFFF;}
	.st1{fill:#D7E6FF;}
</style>
<g>
	<path class="st0" d="M4.8,33.5h10.5c5.8,0,9.8,0.2,11.9,0.7c3.1,0.7,5.7,2.3,7.6,4.6c2,2.4,2.9,5.3,2.9,8.7c0,2.9-0.7,5.4-2,7.6
		c-1.3,2.2-3.3,3.8-5.8,4.9c-2.5,1.1-6,1.7-10.4,1.7l18.9,24.5H32L13,61.8h-3v24.5H4.8V33.5z M10.1,38.7v17.9l9.1,0.1
		c3.5,0,6.1-0.3,7.8-1c1.7-0.7,3-1.7,3.9-3.2s1.4-3.1,1.4-4.9c0-1.8-0.5-3.4-1.4-4.8c-1-1.4-2.2-2.5-3.8-3.1
		c-1.6-0.6-4.1-0.9-7.7-0.9L10.1,38.7L10.1,38.7z"/>
	<path class="st0" d="M47.6,47.3h5v18.2c0,4.4,0.2,7.5,0.7,9.2c0.7,2.4,2.1,4.3,4.1,5.7c2,1.4,4.4,2.1,7.2,2.1c2.8,0,5.2-0.7,7.1-2
		s3.3-3.1,4-5.3c0.5-1.5,0.8-4.7,0.8-9.6V47.3h5.1v19.1c0,5.4-0.6,9.4-1.9,12.1s-3.1,4.9-5.7,6.4c-2.5,1.5-5.7,2.3-9.5,2.3
		s-7-0.8-9.5-2.3s-4.4-3.7-5.7-6.4s-1.9-6.9-1.9-12.4V47.3H47.6z"/>
	<path class="st0" d="M92.8,47.3h5V54c1.7-2.5,3.5-4.3,5.4-5.4c2.5-1.5,5.2-2.3,8-2.3c1.9,0,3.7,0.4,5.4,1.1c1.7,0.7,3.1,1.7,4.2,3
		c1.1,1.2,2,3,2.8,5.3c1.7-3.1,3.8-5.4,6.3-7s5.2-2.4,8.1-2.4c2.7,0,5.1,0.7,7.1,2c2.1,1.4,3.6,3.3,4.6,5.7s1.5,6.1,1.5,11v21.3
		h-5.1V65c0-4.2-0.3-7-0.9-8.6c-0.6-1.6-1.6-2.8-3.1-3.8s-3.2-1.4-5.2-1.4c-2.4,0-4.6,0.7-6.7,2.1c-2,1.4-3.5,3.3-4.4,5.7
		s-1.4,6.4-1.4,12v15.3h-5v-20c0-4.7-0.3-7.9-0.9-9.6c-0.6-1.7-1.6-3-3.1-4s-3.2-1.5-5.2-1.5c-2.3,0-4.5,0.7-6.5,2.1
		c-2,1.4-3.5,3.3-4.5,5.6c-1,2.4-1.5,6-1.5,10.9v16.5h-5L92.8,47.3L92.8,47.3z"/>
	<path class="st0" d="M200.4,47.3v39h-4.9v-6.7c-2.1,2.6-4.5,4.5-7.1,5.8s-5.5,1.9-8.6,1.9c-5.5,0-10.2-2-14.1-6
		c-3.9-4-5.9-8.9-5.9-14.6c0-5.6,2-10.4,5.9-14.4s8.7-6,14.2-6c3.2,0,6.1,0.7,8.7,2c2.6,1.4,4.9,3.4,6.8,6.1v-7.2L200.4,47.3
		L200.4,47.3z M180.4,51.1c-2.8,0-5.4,0.7-7.7,2.1c-2.4,1.4-4.2,3.3-5.6,5.8c-1.4,2.5-2.1,5.1-2.1,7.9c0,2.7,0.7,5.4,2.1,7.9
		c1.4,2.5,3.3,4.5,5.7,5.8c2.4,1.4,4.9,2.1,7.6,2.1c2.7,0,5.3-0.7,7.8-2.1s4.3-3.3,5.7-5.6c1.3-2.4,2-5,2-8c0-4.5-1.5-8.3-4.5-11.3
		C188.4,52.6,184.7,51.1,180.4,51.1z"/>
	<path class="st0" d="M211.7,32.2h5v22c2-2.7,4.3-4.7,6.7-6s5.1-2,7.9-2c2.9,0,5.5,0.7,7.8,2.2s3.9,3.5,5,6s1.6,6.4,1.6,11.7v20.1
		h-5V67.6c0-4.5-0.2-7.5-0.5-9c-0.6-2.6-1.7-4.5-3.4-5.8c-1.6-1.3-3.8-2-6.4-2c-3,0-5.7,1-8.1,3c-2.4,2-4,4.5-4.7,7.4
		c-0.5,1.9-0.7,5.4-0.7,10.6v14.3h-5V32.2H211.7z"/>
</g>
<g>
	<path class="st0" d="M62.8,96.4h14c9,0,15.8,1,20.2,3c4.4,2,8,5.3,10.9,9.8c2.8,4.5,4.3,9.8,4.3,15.8c0,4.3-0.8,8.2-2.4,11.8
		s-3.8,6.6-6.6,9c-2.8,2.4-5.8,4-9.1,4.9c-3.3,0.9-8.9,1.4-17,1.4H62.8V96.4z M74.5,106.7v35.2H80c5.4,0,9.3-0.6,11.8-1.7
		c2.4-1.1,4.4-3,6-5.6c1.5-2.6,2.3-5.9,2.3-9.7c0-5.9-1.8-10.5-5.5-13.8c-3.3-2.9-8.7-4.4-16-4.4C78.6,106.7,74.5,106.7,74.5,106.7z
		"/>
	<path class="st0" d="M142.3,96.4h12l23.9,55.8H166l-4.9-11.5h-25.4l-5.1,11.5h-12.3L142.3,96.4z M148.4,111.2l-8.3,19.1h16.6
		L148.4,111.2z"/>
	<path class="st0" d="M181.3,96.4h34.4v10.5h-11.3v45.3h-12v-45.3h-11V96.4H181.3z"/>
	<path class="st0" d="M242.8,96.4h12l23.9,55.8h-12.3l-4.9-11.5h-25.4l-5.1,11.5h-12.3L242.8,96.4z M248.8,111.2l-8.3,19.1h16.6
		L248.8,111.2z"/>
	<path class="st0" d="M317.2,87.5H331v22.3l19.6-22.3h16.5l-25.2,28.9l27.6,35.8h-16.3L331,123.5v28.7h-13.9V87.5H317.2z"/>
	<path class="st0" d="M378.8,87.5h13.8v41.8c0,3.6,0.4,6.1,1.1,7.6s1.9,2.7,3.5,3.6c1.6,0.9,3.6,1.3,5.9,1.3c2.4,0,4.5-0.5,6.3-1.5
		c1.7-1,3-2.3,3.6-3.8c0.7-1.5,1-4.5,1-8.8V87.5h13.8V126c0,6.5-0.4,11-1.2,13.5s-2.4,5-4.7,7.3c-2.3,2.3-5,4.1-8,5.2
		c-3,1.1-6.5,1.7-10.5,1.7c-5.2,0-9.8-1.1-13.7-3.2c-3.9-2.2-6.6-4.8-8.3-8.1s-2.5-8.7-2.5-16.4L378.8,87.5L378.8,87.5z"/>
</g>
<g>
	<polyline class="st1" points="295.4,152.2 304.1,152.2 304.1,86.2 375.1,40.3 375.1,31 295.4,84.3 	"/>
	<polygon class="st1" points="258.4,82 264.1,91.6 375.1,23 375.1,8 	"/>
	<polyline class="st1" points="295.4,152.2 304.1,152.2 304.1,86.2 375.1,40.3 375.1,31 295.4,84.3 	"/>
	<polyline class="st1" points="375.1,8 258.4,82 264.1,91.6 	"/>
	<polygon class="st1" points="493.8,82 488,91.6 375.1,23 375.1,8 	"/>
	<polyline class="st1" points="456.1,152.2 447.3,152.2 447.3,86.2 375.1,40.3 375.1,31 456.1,84.3 	"/>
</g>
</svg>
